<svg xmlns="http://www.w3.org/2000/svg" viewBox="0 0 900 150" width="900" height="150">
  <defs>
    <linearGradient id="sg" x1="0%" y1="0%" x2="100%" y2="100%">
      <stop offset="0%" stop-color="#0D1117"/>
      <stop offset="100%" stop-color="#161B22"/>
    </linearGradient>
  </defs>
  <rect width="900" height="150" fill="url(#sg)" rx="12"/>
  <rect width="898" height="148" x="1" y="1" fill="none" rx="11" stroke="#30363D" stroke-width="1"/>
  <rect width="900" height="36" fill="rgba(48,54,61,0.45)" rx="12"/>
  <rect width="900" height="18" y="18" fill="rgba(48,54,61,0.45)"/>
  <text x="450" y="23" font-family="Arial,sans-serif" font-size="11" font-weight="bold"
        fill="#4FC3F7" text-anchor="middle" letter-spacing="2">MY NUMBERS</text>

  <text x="112" y="80" font-family="Arial,sans-serif" font-size="36" font-weight="bold" fill="#4FC3F7" text-anchor="middle">4+</text>
  <text x="112" y="100" font-family="Arial,sans-serif" font-size="10" fill="#8B949E" text-anchor="middle" letter-spacing="0.5">YEARS EXP.</text>
  <rect x="67" y="112" width="90" height="3" rx="1.5" fill="#21262D"/>
  <rect x="67" y="112" width="90" height="3" rx="1.5" fill="#4FC3F7" opacity="0.7"/>

  <line x1="212" y1="45" x2="212" y2="132" stroke="#30363D" stroke-width="1"/>

  <text x="337" y="80" font-family="Arial,sans-serif" font-size="36" font-weight="bold" fill="#10B981" text-anchor="middle">1K+</text>
  <text x="337" y="100" font-family="Arial,sans-serif" font-size="10" fill="#8B949E" text-anchor="middle" letter-spacing="0.5">ACTIVE USERS</text>
  <rect x="287" y="112" width="100" height="3" rx="1.5" fill="#21262D"/>
  <rect x="287" y="112" width="100" height="3" rx="1.5" fill="#10B981" opacity="0.7"/>

  <line x1="450" y1="45" x2="450" y2="132" stroke="#30363D" stroke-width="1"/>

  <text x="562" y="80" font-family="Arial,sans-serif" font-size="36" font-weight="bold" fill="#F472B6" text-anchor="middle">10+</text>
  <text x="562" y="100" font-family="Arial,sans-serif" font-size="10" fill="#8B949E" text-anchor="middle" letter-spacing="0.5">SCHOOLS SERVED</text>
  <rect x="512" y="112" width="100" height="3" rx="1.5" fill="#21262D"/>
  <rect x="512" y="112" width="100" height="3" rx="1.5" fill="#F472B6" opacity="0.7"/>

  <line x1="675" y1="45" x2="675" y2="132" stroke="#30363D" stroke-width="1"/>

  <text x="800" y="80" font-family="Arial,sans-serif" font-size="36" font-weight="bold" fill="#A78BFA" text-anchor="middle">25</text>
  <text x="800" y="100" font-family="Arial,sans-serif" font-size="10" fill="#8B949E" text-anchor="middle" letter-spacing="0.5">TEAM SIZE LED</text>
  <rect x="750" y="112" width="100" height="3" rx="1.5" fill="#21262D"/>
  <rect x="750" y="112" width="100" height="3" rx="1.5" fill="#A78BFA" opacity="0.7"/>
</svg>